# xmcd CD database file
#
# Track frame offsets:
#	182
#	17030
#	31000
#	45120
#	59662
#	74067
#	86935
#	102462
#	114302
#	132242
#	147047
#
# Disc length: 2255 seconds
#
# Revision: 4
# Processed by: cddbd v1.5.2PL0 Copyright (c) Steve Scherf et al.
# Submitted via: CDex 1.51
#
DISCID=9608cd0b
DTITLE=Various Artist - Cool Country Hits, Vol. 3
DYEAR=2001
DGENRE=Country
TTITLE0=Jo Dee Messina - Stand Beside Me
TTITLE1=Tim McGraw - She Never Lets It Go To Her Heart
TTITLE2=LeAnn Rimes - Big Deal
TTITLE3=Hank Willams Jr. - They All Want To Go Wild
TTITLE4=Hal Ketchum - I Saw The Light
TTITLE5=Hank III - You're The Reason
TTITLE6=Steve Holy - Don't Make Me Beg
TTITLE7=Junior Brown - Venom Wearin' Denim
TTITLE8=Sawyer Brown - This Night Won't Last Forever
TTITLE9=Wynonna - Come Some Rainy Day
TTITLE10=Lyle Lovett - That's Right (You're Not From Texas)
EXTD=Curb Records YEAR: 2001
EXTT0=
EXTT1=
EXTT2=
EXTT3=
EXTT4=
EXTT5=
EXTT6=
EXTT7=
EXTT8=
EXTT9=
EXTT10=
PLAYORDER=
